<?xml version="1.0" encoding="UTF-8" standalone="no"?>
<svg
   xmlns:dc="http://purl.org/dc/elements/1.1/"
   xmlns:cc="http://creativecommons.org/ns#"
   xmlns:rdf="http://www.w3.org/1999/02/22-rdf-syntax-ns#"
   xmlns:svg="http://www.w3.org/2000/svg"
   xmlns="http://www.w3.org/2000/svg"
   xmlns:sodipodi="http://sodipodi.sourceforge.net/DTD/sodipodi-0.dtd"
   xmlns:inkscape="http://www.inkscape.org/namespaces/inkscape"
   width="100"
   height="100"
   viewBox="0 0 26.458 26.458"
   version="1.1"
   id="svg10"
   sodipodi:docname="logbook - favicon.svg"
   inkscape:version="0.92.3 (2405546, 2018-03-11)">
  <metadata
     id="metadata16">
    <rdf:RDF>
      <cc:Work
         rdf:about="">
        <dc:format>image/svg+xml</dc:format>
        <dc:type
           rdf:resource="http://purl.org/dc/dcmitype/StillImage" />
      </cc:Work>
    </rdf:RDF>
  </metadata>
  <defs
     id="defs14" />
  <sodipodi:namedview
     pagecolor="#ffffff"
     bordercolor="#666666"
     borderopacity="1"
     objecttolerance="10"
     gridtolerance="10"
     guidetolerance="10"
     inkscape:pageopacity="0"
     inkscape:pageshadow="2"
     inkscape:window-width="1920"
     inkscape:window-height="1051"
     id="namedview12"
     showgrid="true"
     inkscape:zoom="8.96"
     inkscape:cx="50"
     inkscape:cy="50"
     inkscape:window-x="-9"
     inkscape:window-y="-9"
     inkscape:window-maximized="1"
     inkscape:current-layer="svg10">
    <inkscape:grid
       type="xygrid"
       id="grid873" />
  </sodipodi:namedview>
  <rect
     style="fill:#ffffff;fill-opacity:1;fill-rule:nonzero;stroke:none;stroke-width:0;stroke-linecap:square;stroke-linejoin:bevel;stroke-miterlimit:4;stroke-dasharray:none;paint-order:fill markers stroke"
     id="rect835"
     width="53.093174"
     height="52.97506"
     x="-26.899754"
     y="-26.517059" />
  <path
     inkscape:connector-curvature="0"
     style="color:#000000;font-weight:400;line-height:normal;font-family:sans-serif;font-variant-ligatures:normal;font-variant-position:normal;font-variant-caps:normal;font-variant-numeric:normal;font-variant-alternates:normal;font-feature-settings:normal;text-indent:0;text-align:start;text-decoration:none;text-decoration-line:none;text-decoration-style:solid;text-decoration-color:#000000;text-transform:none;text-orientation:mixed;white-space:normal;shape-padding:0;overflow:visible;isolation:auto;mix-blend-mode:normal;solid-color:#000000;solid-opacity:1;stroke-width:1"
     d="m 3.3568799,2.2164999 a 0.58900001,0.58900001 0 0 0 -0.582,0.586 V 6.6925 h 0.8 V 3.0184999 H 18.64988 V 23.3835 H 3.5738799 v -5.293 h -0.799 v 5.512 a 0.59000001,0.59000001 0 0 0 0.582,0.582 H 18.86688 a 0.58900001,0.58900001 0 0 0 0.582,-0.586 V 2.8024999 a 0.588,0.588 0 0 0 -0.582,-0.586 z m -0.582,5.2909999 V 11.9865 h 0.8 V 7.5074998 Z m 0,5.2930002 v 4.475 h 0.8 v -4.475 z"
     font-weight="400"
     overflow="visible"
     id="path2" />
  <path
     inkscape:connector-curvature="0"
     style="color:#000000;font-weight:400;line-height:normal;font-family:sans-serif;font-variant-ligatures:normal;font-variant-position:normal;font-variant-caps:normal;font-variant-numeric:normal;font-variant-alternates:normal;font-feature-settings:normal;text-indent:0;text-align:start;text-decoration:none;text-decoration-line:none;text-decoration-style:solid;text-decoration-color:#000000;text-transform:none;text-orientation:mixed;white-space:normal;shape-padding:0;overflow:visible;isolation:auto;mix-blend-mode:normal;solid-color:#000000;solid-opacity:1;stroke-width:1"
     d="m 1.85188,7.5074998 a 0.40000015,0.40000015 0 1 0 0,0.8000003 h 2.6459999 a 0.40000015,0.40000015 0 1 0 0,-0.8000003 z m 0,5.2930002 a 0.40000001,0.40000001 0 1 0 0,0.8 h 2.6459999 a 0.40000001,0.40000001 0 1 0 0,-0.8 z m 0,5.29 a 0.40000001,0.40000001 0 1 0 0,0.8 h 2.6459999 a 0.40000001,0.40000001 0 1 0 0,-0.8 z m 20.439,-11.5060002 c -0.23,0 -0.427,0.3000001 -0.427,0.6530001 V 23.5575 c 0,0.354 0.195,0.65 0.427,0.65 h 1.427 c 0.232,0 0.428,-0.296 0.428,-0.65 V 7.2374999 c 0,-0.353 -0.198,-0.6530001 -0.428,-0.6530001 h -1.428 z"
     font-weight="400"
     overflow="visible"
     id="path4" />
  <path
     inkscape:connector-curvature="0"
     style="color:#000000;font-weight:400;line-height:normal;font-family:sans-serif;font-variant-ligatures:normal;font-variant-position:normal;font-variant-caps:normal;font-variant-numeric:normal;font-variant-alternates:normal;font-feature-settings:normal;text-indent:0;text-align:start;text-decoration:none;text-decoration-line:none;text-decoration-style:solid;text-decoration-color:#000000;text-transform:none;text-orientation:mixed;white-space:normal;shape-padding:0;overflow:visible;isolation:auto;mix-blend-mode:normal;solid-color:#000000;solid-opacity:1;fill-rule:evenodd;stroke-width:1"
     d="m 23.01988,2.5734999 -0.795,2.3819999 h 1.586 z"
     font-weight="400"
     overflow="visible"
     id="path6" />
  <path
     inkscape:connector-curvature="0"
     style="color:#000000;font-weight:400;line-height:normal;font-family:sans-serif;font-variant-ligatures:normal;font-variant-position:normal;font-variant-caps:normal;font-variant-numeric:normal;font-variant-alternates:normal;font-feature-settings:normal;text-indent:0;text-align:start;text-decoration:none;text-decoration-line:none;text-decoration-style:solid;text-decoration-color:#000000;text-transform:none;text-orientation:mixed;white-space:normal;shape-padding:0;overflow:visible;isolation:auto;mix-blend-mode:normal;solid-color:#000000;solid-opacity:1;stroke-width:1;paint-order:fill markers"
     d="m 9.52488,6.6145 c -0.8540002,0 -1.5579999,0.7049999 -1.5579999,1.5589998 V 11.3475 a 1.563,1.563 0 0 0 1.5579999,1.558 h 5.82 c 0.856,0 1.56,-0.703 1.56,-1.558 V 8.1734998 c 0,-0.8549998 -0.704,-1.5589998 -1.56,-1.5589998 z"
     font-weight="400"
     overflow="visible"
     id="path8" />
</svg>
