<svg xmlns="http://www.w3.org/2000/svg" width="100" height="100" viewBox="0 0 26.458 26.458"><path style="line-height:normal;font-variant-ligatures:normal;font-variant-position:normal;font-variant-caps:normal;font-variant-numeric:normal;font-variant-alternates:normal;font-feature-settings:normal;text-indent:0;text-align:start;text-decoration-line:none;text-decoration-style:solid;text-decoration-color:#000;text-transform:none;text-orientation:mixed;white-space:normal;shape-padding:0;isolation:auto;mix-blend-mode:normal;solid-color:#000;solid-opacity:1" d="M3.357 2.246a.589.589 0 0 0-.582.586v3.89h.8V3.048H18.65v20.365H3.574V18.12h-.799v5.512a.59.59 0 0 0 .582.582h15.51a.589.589 0 0 0 .582-.586V2.832a.588.588 0 0 0-.582-.586zm-.582 5.291v4.479h.8V7.537zm0 5.293v4.475h.8V12.83z" color="#000" font-weight="400" font-family="sans-serif" overflow="visible" fill="#fff"/><path style="line-height:normal;font-variant-ligatures:normal;font-variant-position:normal;font-variant-caps:normal;font-variant-numeric:normal;font-variant-alternates:normal;font-feature-settings:normal;text-indent:0;text-align:start;text-decoration-line:none;text-decoration-style:solid;text-decoration-color:#000;text-transform:none;text-orientation:mixed;white-space:normal;shape-padding:0;isolation:auto;mix-blend-mode:normal;solid-color:#000;solid-opacity:1" d="M1.852 7.537a.4.4 0 1 0 0 .8h2.646a.4.4 0 1 0 0-.8zm0 5.293a.4.4 0 1 0 0 .8h2.646a.4.4 0 1 0 0-.8zm0 5.29a.4.4 0 1 0 0 .8h2.646a.4.4 0 1 0 0-.8zM22.291 6.614c-.23 0-.427.3-.427.653v16.32c0 .354.195.65.427.65h1.427c.232 0 .428-.296.428-.65V7.267c0-.353-.198-.653-.428-.653H22.29z" color="#000" font-weight="400" font-family="sans-serif" overflow="visible" fill="#fff"/><path style="line-height:normal;font-variant-ligatures:normal;font-variant-position:normal;font-variant-caps:normal;font-variant-numeric:normal;font-variant-alternates:normal;font-feature-settings:normal;text-indent:0;text-align:start;text-decoration-line:none;text-decoration-style:solid;text-decoration-color:#000;text-transform:none;text-orientation:mixed;white-space:normal;shape-padding:0;isolation:auto;mix-blend-mode:normal;solid-color:#000;solid-opacity:1" d="M23.02 2.603l-.795 2.382h1.586z" font-weight="400" overflow="visible" color="#000" font-family="sans-serif" fill-rule="evenodd" fill="#fff"/><path style="line-height:normal;font-variant-ligatures:normal;font-variant-position:normal;font-variant-caps:normal;font-variant-numeric:normal;font-variant-alternates:normal;font-feature-settings:normal;text-indent:0;text-align:start;text-decoration-line:none;text-decoration-style:solid;text-decoration-color:#000;text-transform:none;text-orientation:mixed;white-space:normal;shape-padding:0;isolation:auto;mix-blend-mode:normal;solid-color:#000;solid-opacity:1" d="M9.525 6.644c-.854 0-1.558.705-1.558 1.559v3.174a1.563 1.563 0 0 0 1.558 1.558h5.82c.856 0 1.56-.703 1.56-1.558V8.203c0-.855-.704-1.559-1.56-1.559h-5.82z" color="#000" font-weight="400" font-family="sans-serif" overflow="visible" paint-order="fill markers" fill="#fff"/></svg>